<?xml version="1.0" standalone="no"?><!DOCTYPE svg PUBLIC "-//W3C//DTD SVG 1.1//EN" "http://www.w3.org/Graphics/SVG/1.1/DTD/svg11.dtd"><svg t="1766467799197" class="icon" viewBox="0 0 1024 1024" version="1.1" xmlns="http://www.w3.org/2000/svg" p-id="1576" xmlns:xlink="http://www.w3.org/1999/xlink" width="200" height="200"><path d="M512 82c237.482 0 430 192.518 430 430 0 128.822-57.15 249.565-155.928 331.351-6.533 5.41-16.214 4.498-21.623-2.034l-29.382-35.487c-5.409-6.533-4.498-16.213 2.035-21.622C818.31 716.968 865.214 617.878 865.214 512c0-195.075-158.14-353.214-353.214-353.214-195.075 0-353.214 158.14-353.214 353.214 0 103.647 44.947 200.788 123.023 267.913l77.012-91.778c7.162-8.536 19.889-9.65 28.425-2.487a20.176 20.176 0 0 1 6.875 11.812l44.016 239.646c2.013 10.96-5.24 21.477-16.2 23.49-1.25 0.23-2.518 0.34-3.788 0.332l-243.65-1.734c-11.142-0.08-20.11-9.176-20.032-20.32a20.18 20.18 0 0 1 4.72-12.825l73.262-87.31C137.039 757.061 82 638.421 82 512 82 274.518 274.518 82 512 82z" p-id="1577"></path><path d="M512 72C268.995 72 72 268.995 72 512l0.017 3.868c1.075 123.712 53.693 240.24 145.233 322.825l1.247 1.114-66.97 79.814a30.18 30.18 0 0 0-7.06 19.182c-0.118 16.666 13.296 30.272 29.962 30.39l243.649 1.735a30.288 30.288 0 0 0 5.666-0.497c16.392-3.01 27.24-18.74 24.228-35.131l-44.015-239.647a30.176 30.176 0 0 0-10.283-17.665l-0.385-0.318c-12.762-10.36-31.523-8.602-42.129 4.037l-70.41 83.91-1.394-1.273C208.845 699.358 168.786 608.439 168.786 512c0-189.552 153.662-343.214 343.214-343.214S855.214 322.448 855.214 512c0 101.661-44.508 197.103-122.127 262.532l-2.363 1.973c-10.786 8.931-12.29 24.916-3.36 35.703l29.383 35.486c8.931 10.787 24.916 12.291 35.702 3.36C893.72 767.204 952 643.547 952 512c0-243.005-196.995-440-440-440z m0 10c237.482 0 430 192.518 430 430 0 128.822-57.15 249.565-155.928 331.351-6.533 5.41-16.214 4.498-21.623-2.034l-29.382-35.487c-5.409-6.533-4.498-16.213 2.035-21.622C818.31 716.968 865.214 617.878 865.214 512c0-195.075-158.14-353.214-353.214-353.214-195.075 0-353.214 158.14-353.214 353.214 0 103.647 44.947 200.788 123.023 267.913l77.012-91.778c7.162-8.536 19.889-9.65 28.425-2.487a20.176 20.176 0 0 1 6.875 11.812l44.016 239.646c2.013 10.96-5.24 21.477-16.2 23.49-1.25 0.23-2.518 0.332-3.788 0.332l-243.65-1.734c-11.142-0.08-20.11-9.176-20.032-20.32a20.18 20.18 0 0 1 4.72-12.825l73.262-87.31C137.039 757.061 82 638.421 82 512 82 274.518 274.518 82 512 82z" p-id="1578"></path></svg>