<?xml version="1.0" standalone="no"?><!DOCTYPE svg PUBLIC "-//W3C//DTD SVG 1.1//EN" "http://www.w3.org/Graphics/SVG/1.1/DTD/svg11.dtd"><svg t="1766467795936" class="icon" viewBox="0 0 1024 1024" version="1.1" xmlns="http://www.w3.org/2000/svg" p-id="1422" xmlns:xlink="http://www.w3.org/1999/xlink" width="200" height="200"><path d="M886.755 300.678c6.952-5.454 17.01-4.24 22.464 2.711l29.63 37.764c5.455 6.952 4.242 17.01-2.71 22.464-40.107 31.469-89.92 57.908-146.753 78.163l-1.414 0.501 74.886 205.75c2.985 8.202-1.154 17.259-9.257 20.393l-0.306 0.115-45.105 16.417c-8.304 3.022-17.485-1.26-20.507-9.563L711 464.709l-0.644 0.152c-50.05 11.665-103.122 18.845-157.533 21.243l-0.556 0.023 0.001 223.873c0 8.731-6.994 15.83-15.685 16h-48.315c-8.837 0-16-7.163-16-16V486.15l-0.548-0.023c-54.416-2.365-107.499-9.514-157.57-21.148l-0.658-0.154-76.639 210.568c-2.985 8.201-11.978 12.479-20.2 9.671l-0.307-0.108-45.105-16.417c-8.304-3.022-12.585-12.204-9.563-20.507L236.5 442.449l-1.38-0.488C178.97 422 129.65 396.005 89.748 365.087l-1.327-1.032c-6.962-5.442-8.194-15.498-2.751-22.46l29.56-37.817c5.443-6.962 15.498-8.194 22.46-2.752C222.093 367.005 361.462 407 512 407c150.819 0 290.416-40.147 374.755-106.322z" p-id="1423"></path></svg>