<?xml version="1.0" standalone="no"?><!DOCTYPE svg PUBLIC "-//W3C//DTD SVG 1.1//EN" "http://www.w3.org/Graphics/SVG/1.1/DTD/svg11.dtd"><svg t="1766468633540" class="icon" viewBox="0 0 1024 1024" version="1.1" xmlns="http://www.w3.org/2000/svg" p-id="2037" xmlns:xlink="http://www.w3.org/1999/xlink" width="200" height="200"><path d="M512 306c113.77 0 206 92.23 206 206s-92.23 206-206 206-206-92.23-206-206 92.23-206 206-206z m0 80c-69.588 0-126 56.412-126 126s56.412 126 126 126 126-56.412 126-126-56.412-126-126-126z" p-id="2038"></path><path d="M511 189.693c-206.17 0-354.677 104.124-439.541 306.862L64.407 513.4l8.11 16.363C172.262 731.017 320.616 834.46 513.45 834.46c192.889 0 340.637-103.349 439.021-304.377l8.06-16.469-7.216-16.856C866.455 293.862 717.077 189.693 511 189.693z m0 80l5.18 0.026c163.568 1.603 280.044 79.399 354.42 238.052l1.69 3.648-2.118 4.055C785.267 676.47 667.606 754.46 513.45 754.46l-4.808-0.025c-151.863-1.613-268.633-79.867-353.85-239.589l-2.223-4.208 1.636-3.604C227.63 347.183 344.798 269.694 511 269.694z" p-id="2039"></path></svg>