<?xml version="1.0" standalone="no"?><!DOCTYPE svg PUBLIC "-//W3C//DTD SVG 1.1//EN" "http://www.w3.org/Graphics/SVG/1.1/DTD/svg11.dtd"><svg t="1766467808693" class="icon" viewBox="0 0 1024 1024" version="1.1" xmlns="http://www.w3.org/2000/svg" p-id="1883" xmlns:xlink="http://www.w3.org/1999/xlink" width="200" height="200"><path d="M177 336c35.346 0 64-28.654 64-64 0-35.346-28.654-64-64-64-35.346 0-64 28.654-64 64 0 35.346 28.654 64 64 64z m0 240c35.346 0 64-28.654 64-64 0-35.346-28.654-64-64-64-35.346 0-64 28.654-64 64 0 35.346 28.654 64 64 64z m0 240c35.346 0 64-28.654 64-64 0-35.346-28.654-64-64-64-35.346 0-64 28.654-64 64 0 35.346 28.654 64 64 64z m168-588h552c8.837 0 16 7.163 16 16v56c0 8.837-7.163 16-16 16H345c-8.837 0-16-7.163-16-16v-56c0-8.837 7.163-16 16-16z m0 240h552c8.837 0 16 7.163 16 16v56c0 8.837-7.163 16-16 16H345c-8.837 0-16-7.163-16-16v-56c0-8.837 7.163-16 16-16z m0 240h552c8.837 0 16 7.163 16 16v56c0 8.837-7.163 16-16 16H345c-8.837 0-16-7.163-16-16v-56c0-8.837 7.163-16 16-16z" p-id="1884"></path></svg>